<svg aria-hidden="true" style="position: absolute; width: 0; height: 0; overflow: hidden;" version="1.1" xmlns="http://www.w3.org/2000/svg" xmlns:xlink="http://www.w3.org/1999/xlink">
<defs>
<symbol id="icon-bx-cart-alt" viewBox="0 0 32 32">
<path d="M28 5.333h-25.333v2.667h3.067l4.373 12c0.564 1.563 2.033 2.662 3.759 2.667h11.467v-2.667h-11.467c-0.574-0-1.062-0.363-1.25-0.871l-0.003-0.009-0.613-1.787h12.373c1.21-0.002 2.231-0.809 2.555-1.914l0.005-0.019 2.4-8.373c0.038-0.118 0.060-0.254 0.060-0.394 0-0.63-0.437-1.158-1.024-1.297l-0.009-0.002c-0.054-0.009-0.116-0.015-0.18-0.015s-0.126 0.005-0.187 0.015l0.007-0.001zM24.333 14.667h-13.333l-2.427-6.667h17.653z"></path>
<path d="M16 26c0 1.105-0.895 2-2 2s-2-0.895-2-2c0-1.105 0.895-2 2-2s2 0.895 2 2z"></path>
<path d="M24 26c0 1.105-0.895 2-2 2s-2-0.895-2-2c0-1.105 0.895-2 2-2s2 0.895 2 2z"></path>
</symbol>
<symbol id="icon-sun" viewBox="0 0 32 32">
<path fill="#1c274c" style="fill: var(--color1, #1c274c)" d="M16 1.667c0.552 0 1 0.448 1 1v1.333c0 0.552-0.448 1-1 1s-1-0.448-1-1v-1.333c0-0.552 0.448-1 1-1zM5.865 5.865c0.391-0.391 1.024-0.391 1.414 0l0.524 0.524c0.391 0.391 0.391 1.024 0 1.414s-1.024 0.391-1.414 0l-0.524-0.524c-0.391-0.391-0.391-1.024 0-1.414zM26.135 5.865c0.391 0.391 0.391 1.024 0 1.414l-0.524 0.524c-0.391 0.391-1.024 0.391-1.414 0s-0.391-1.024 0-1.414l0.524-0.524c0.391-0.391 1.024-0.391 1.414 0zM16 9c-3.866 0-7 3.134-7 7s3.134 7 7 7c3.866 0 7-3.134 7-7s-3.134-7-7-7zM7 16c0-4.971 4.029-9 9-9s9 4.029 9 9c0 4.971-4.029 9-9 9s-9-4.029-9-9zM1.667 16c0-0.552 0.448-1 1-1h1.333c0.552 0 1 0.448 1 1s-0.448 1-1 1h-1.333c-0.552 0-1-0.448-1-1zM27 16c0-0.552 0.448-1 1-1h1.333c0.552 0 1 0.448 1 1s-0.448 1-1 1h-1.333c-0.552 0-1-0.448-1-1zM24.197 24.197c0.391-0.391 1.024-0.391 1.414 0l0.524 0.524c0.391 0.391 0.391 1.024 0 1.414s-1.024 0.391-1.414 0l-0.524-0.524c-0.391-0.391-0.391-1.024 0-1.414zM7.803 24.197c0.391 0.391 0.391 1.024 0 1.414l-0.524 0.524c-0.391 0.391-1.024 0.391-1.414 0s-0.391-1.024 0-1.414l0.524-0.524c0.391-0.391 1.024-0.391 1.414 0zM16 27c0.552 0 1 0.448 1 1v1.333c0 0.552-0.448 1-1 1s-1-0.448-1-1v-1.333c0-0.552 0.448-1 1-1z"></path>
</symbol>
<symbol id="icon-moon" viewBox="0 0 32 32">
<path d="M16 15.743c-2.171-2.172-3.514-5.172-3.514-8.486 0-1.656 0.335-3.234 0.942-4.669l-0.030 0.079c-2.691 0.542-5.019 1.834-6.826 3.646l-0 0c-5.207 5.207-5.207 13.649 0 18.856 5.208 5.208 13.649 5.207 18.857 0 1.812-1.807 3.104-4.135 3.632-6.74l0.014-0.085c-1.356 0.577-2.934 0.912-4.59 0.912-3.314 0-6.314-1.343-8.486-3.514l0 0z"></path>
</symbol>
<symbol id="gmail" viewBox="0 0 32 32">
<path d="M24.973 7.213l-1.707 1.333-7.267 5.4-7.267-5.453-1.707-1.333c-0.458-0.381-1.052-0.612-1.7-0.612-1.473 0-2.667 1.194-2.667 2.667 0 0.065 0.002 0.13 0.007 0.194l-0.001-0.009v15.453c0 1.001 0.812 1.813 1.813 1.813v0h4.253v-10.293l7.267 5.453 7.267-5.453v10.293h4.253c1.001 0 1.813-0.812 1.813-1.813v0-15.453c0.002-0.039 0.003-0.084 0.003-0.129 0-1.473-1.194-2.667-2.667-2.667-0.646 0-1.239 0.23-1.701 0.613l0.004-0.004z"></path>
</symbol>
<symbol id="linkedin" viewBox="0 0 32 32">
<path d="M9.561 6.679c0 1.611-1.306 2.917-2.917 2.917s-2.917-1.306-2.917-2.917c0-1.611 1.306-2.917 2.917-2.917s2.917 1.306 2.917 2.917z"></path>
<path d="M12.316 11.807v16.185h5.025v-8.004c0-2.112 0.397-4.157 3.016-4.157 2.583 0 2.615 2.415 2.615 4.291v7.872h5.028v-8.876c0-4.36-0.939-7.711-6.035-7.711-2.447 0-4.087 1.343-4.757 2.613h-0.068v-2.213h-4.824zM4.127 11.807h5.033v16.185h-5.033z"></path>
</symbol>
<symbol id="facebook" viewBox="0 0 32 32">
<path d="M16.001 2.669c-7.363 0-13.332 5.969-13.332 13.332 0 6.653 4.875 12.168 11.249 13.172v-9.317h-3.387v-3.855h3.387v-2.937c0-3.344 1.991-5.188 5.035-5.188 1.459 0 2.987 0.26 2.987 0.26v3.279h-1.685c-1.653 0-2.171 1.029-2.171 2.084v2.5h3.695l-0.591 3.855h-3.104v9.317c6.375-0.999 11.249-6.515 11.249-13.169 0-7.363-5.969-13.332-13.332-13.332z"></path>
</symbol>
<symbol id="instagram" viewBox="0 0 32 32">
<path d="M27.929 11.073c-0.015-1.065-0.218-2.079-0.579-3.014l0.020 0.060c-0.638-1.617-1.894-2.872-3.469-3.496l-0.042-0.015c-0.863-0.334-1.862-0.538-2.905-0.56l-0.009-0c-1.283-0.057-1.689-0.073-4.945-0.073s-3.673 0-4.947 0.073c-1.052 0.022-2.050 0.226-2.974 0.58l0.060-0.020c-1.617 0.638-2.873 1.894-3.496 3.469l-0.014 0.042c-0.335 0.863-0.538 1.861-0.559 2.905l-0 0.009c-0.057 1.284-0.075 1.691-0.075 4.947s0 3.672 0.075 4.947c0.020 0.997 0.208 1.981 0.559 2.916 0.639 1.616 1.895 2.872 3.47 3.495l0.042 0.015c0.86 0.347 1.856 0.564 2.899 0.6l0.015 0c1.284 0.057 1.691 0.075 4.947 0.075s3.673 0 4.947-0.075c1.052-0.021 2.051-0.224 2.975-0.579l-0.060 0.020c1.616-0.639 2.872-1.895 3.496-3.469l0.015-0.042c0.351-0.933 0.539-1.917 0.559-2.916 0.057-1.283 0.075-1.689 0.075-4.947-0.003-3.256-0.003-3.669-0.077-4.945zM15.992 22.136c-3.405 0-6.164-2.759-6.164-6.164s2.759-6.164 6.164-6.164c3.404 0 6.164 2.76 6.164 6.164s-2.76 6.164-6.164 6.164v0zM22.401 11.017c-0 0-0.001 0-0.001 0-0.793 0-1.436-0.643-1.436-1.436 0-0 0-0.001 0-0.001v0c0-0.793 0.643-1.437 1.437-1.437s1.437 0.643 1.437 1.437v0c0 0.795-0.643 1.437-1.436 1.437z"></path>
<path d="M19.996 15.972c0 2.211-1.793 4.004-4.004 4.004s-4.004-1.793-4.004-4.004c0-2.211 1.793-4.004 4.004-4.004s4.004 1.793 4.004 4.004z"></path>
</symbol>
</defs>
</svg>
